<svg xmlns="http://www.w3.org/2000/svg" id="Capa_1" data-name="Capa 1" viewBox="0 0 150 150">
  <defs>
    <style>.cls-1 {
      fill: #fff;
    }</style>
  </defs>
  <g id="bbva">
    <path class="cls-1"
          d="M40.42,76a6.73,6.73,0,0,1,3.64,3.27c1.4,2.77,1.08,8.09-2.32,10.33a10.43,10.43,0,0,1-5,1.66c-3,.26-6,.08-9.06.12-2.08,0-4.15,0-6.23,0-.65,0-.78-.13-.78-.78v-27c0-.66.1-.78.72-.78,4.86,0,9.72,0,14.57,0a7.52,7.52,0,0,1,6.52,3.52,7.26,7.26,0,0,1-.6,8.44A6.32,6.32,0,0,1,40.42,76ZM31.1,78.55H26.21c-.72,0-.86.14-.86.88v6.9c0,.75.15.89.92.89h8a14.12,14.12,0,0,0,2.6-.23A3.49,3.49,0,0,0,40,84.21a6.59,6.59,0,0,0,.11-1.88,3.44,3.44,0,0,0-2.61-3.4,8.11,8.11,0,0,0-1.3-.27C34.4,78.43,32.59,78.61,31.1,78.55Zm-.18-11.63c-1.75,0-3.23,0-4.71,0-.7,0-.85.16-.86.85v5.79c0,.68.17.85.86.85q3.75,0,7.51,0a16.51,16.51,0,0,0,1.72-.09,3.42,3.42,0,0,0,3.37-3.15c.15-2.18-.72-3.51-2.67-4a5.94,5.94,0,0,0-1-.17C33.62,66.85,32.14,67,30.92,66.92Z"></path>
    <path class="cls-1"
          d="M63.17,62.84a16,16,0,0,1,3.09.24c3,.72,5.09,2.4,5.87,5.49a10.89,10.89,0,0,1,.18,2.2A6.15,6.15,0,0,1,69.23,76a6.75,6.75,0,0,1,3.55,3.15,8.69,8.69,0,0,1,.86,3.75,10.8,10.8,0,0,1-.72,3.73,7.43,7.43,0,0,1-5.35,4.26,16.82,16.82,0,0,1-4.24.47c-4.28,0-8.56,0-12.84,0-.77,0-.89-.13-.89-.91V73.05c0-.21,0-.41,0-.61,0-2.88,0-5.75,0-8.62,0-.86.09-1,.95-1l5.17,0ZM65.66,73.9a2.3,2.3,0,0,0,1.58-1.34,3.65,3.65,0,0,0-2.71-5.46,33.91,33.91,0,0,0-5.14-.1l-4.33,0c-.63,0-.79.16-.79.79V73.6c0,.69.16.84.86.84,2.79,0,5.59,0,8.38,0A4.06,4.06,0,0,0,65.66,73.9Zm-6,13.33h4a9.76,9.76,0,0,0,2.58-.32,3.37,3.37,0,0,0,2.64-2.7,6.54,6.54,0,0,0,.11-1.82,3.5,3.5,0,0,0-3-3.52,9.48,9.48,0,0,0-2.42-.29H55.11c-.69,0-.84.16-.84.86v7c0,.72.14.86.89.86Z"></path>
    <path class="cls-1"
          d="M96,68.33a8,8,0,0,0,1-1.77c.56-1,1.12-2.08,1.67-3.13.13-.24.25-.5.55-.58h1.61a32.3,32.3,0,0,1,3.26.06.57.57,0,0,1,0,.71c-.19.33-.35.68-.53,1L101.8,68l-3.56,6.67-5.36,10-3.24,6.07c-.15.27-.25.59-.65.59s-.51-.33-.65-.6q-2.45-4.55-4.87-9.09l-.6-1.18-3.56-6.6-2.22-4.11c-.93-2-2-3.92-3.07-5.88a2.73,2.73,0,0,1-.23-.45c-.09-.33,0-.58.4-.58l1.33,0c1,0,1.93,0,2.89,0a.84.84,0,0,1,.87.53c.93,1.79,1.87,3.57,2.81,5.36.09.18.2.34.3.52,1,1.93,2,3.85,3,5.74s2,3.94,3,5.89a.56.56,0,0,0,1.05,0c1.18-2.24,2.34-4.5,3.51-6.76.67-1.18,1.3-2.38,1.89-3.61C95.25,69.8,95.74,69.12,96,68.33Z"></path>
    <path class="cls-1"
          d="M108.53,78.77c-1.32,2.49-2.66,5-3.94,7.5a1.37,1.37,0,0,1-1.49.89c-1.33,0-2.67,0-4,0L98.88,87a1.11,1.11,0,0,1,.19-.79l8-14.93c.09-.17.16-.34.24-.5l.11-.21,0,0,0,0c.83-1.42,1.58-2.88,2.32-4.35.11-.17.22-.33.32-.51l3.43-6.47c.14-.26.26-.53.59-.62a.78.78,0,0,1,.66.51c.54,1,1.1,2.06,1.66,3.09l1,1.87a7.27,7.27,0,0,0,.64,1.24,18.93,18.93,0,0,0,1,1.88c.66,1.32,1.34,2.63,2.08,3.91.21.43.4.86.62,1.28q3.73,7,7.46,13.95c.3.55.15.78-.48.79l-2.78,0a5.19,5.19,0,0,0-1,0c-.69.14-1-.25-1.27-.76-1.29-2.7-2.77-5.31-4.14-8-1-2-2-4-3.09-5.9-.57-1.11-1.13-2.23-1.71-3.33-.31-.6-.82-.61-1.13,0-.7,1.31-1.37,2.63-2.05,3.95Z"></path>
  </g>
</svg>
