<svg xmlns="http://www.w3.org/2000/svg" xmlns:xlink="http://www.w3.org/1999/xlink" id="Capa_1" data-name="Capa 1"
     viewBox="0 0 150 150">
  <defs>
    <style>.cls-1 {
      fill: #fff;
    }

    .cls-2 {
      fill: #e6e6e6;
    }

    .cls-3 {
      clip-path: url(#clip-path);
    }

    .cls-4 {
      clip-path: url(#clip-path-2);
    }

    .cls-5 {
      clip-path: url(#clip-path-3);
    }

    .cls-6 {
      clip-path: url(#clip-path-4);
    }

    .cls-7 {
      clip-path: url(#clip-path-5);
    }

    .cls-8 {
      clip-path: url(#clip-path-6);
    }

    .cls-9 {
      clip-path: url(#clip-path-7);
    }</style>
    <clipPath id="clip-path">
      <path class="cls-1"
            d="M41.85,84.47l1.8-7.78h2.41c3.39,0,6.22.94,6.15,4.12-.09,3.55-3.72,5-7.69,5H42.71a1.07,1.07,0,0,1-.86-1.33Zm18-3.53a6.53,6.53,0,0,0-6-6.88c3.39-.55,7.84-3,7.84-7.6,0-4.86-4.91-7.47-12.29-7.47a57.69,57.69,0,0,0-9.53.77L34.62,83.2S32.8,89.26,38,90.51a17.26,17.26,0,0,0,4.11.57c13.76.77,17.77-5.43,17.77-10.14ZM46.41,64.4a25.69,25.69,0,0,1,3.17-.17c2.76,0,4.73,1,4.69,3.24-.07,2.76-2.85,4.29-6.88,4.29H45.84c-1.14,0-.81-1.31-.81-1.31Z"></path>
    </clipPath>
    <clipPath id="clip-path-2">
      <path class="cls-1"
            d="M93.63,91.17c1.12,0,3.22-.44,4-3.66.57-2.56,1.54-6.88,1.54-6.88.74,0,1.79.2,3,.2,11.83,0,15.92-7.6,15.92-12.75,0-5.63-3.92-8.87-12.46-8.91a39.22,39.22,0,0,0-9.42.68L89.23,91.17Zm9.48-26.55a24.1,24.1,0,0,1,3.07-.15c2.76,0,5,.81,5,4.12s-2.56,6.59-7.51,6.63h-.95c-2.23,0-1.6-1.86-1.6-1.86Z"></path>
    </clipPath>
    <clipPath id="clip-path-3">
      <path class="cls-1"
            d="M71.9,77.35c0-5.08,3.31-12.69,10.87-12.69,2,0,5.49.51,7.57,2.35,0,0,.77-2.61,1-3.66s-.18-2.76-3.44-3.85a18.45,18.45,0,0,0-6.07-1c-11.82,0-18,9.72-18,19.25C63.84,88,70.72,91.5,77.71,91.5a15.46,15.46,0,0,0,5.8-.86,3.52,3.52,0,0,0,2.28-2.43L87,83a11.07,11.07,0,0,1-7.21,2.52c-4.92,0-7.79-3.17-7.79-8.1"></path>
    </clipPath>
    <clipPath id="clip-path-4">
      <path class="cls-2"
            d="M20.47,61.42c-2.69-1.27-5.69,2.33-5.87,2.52a14.82,14.82,0,0,0-1.77,2.94l1.53.79a25.22,25.22,0,0,1,7.52,5.6c1.81-4.49,1.53-10.53-1.41-11.85Z"></path>
    </clipPath>
    <clipPath id="clip-path-5">
      <path class="cls-1"
            d="M31,77.83c-2.85,4.58-10.65,9.77-12.84,10.53a6.34,6.34,0,0,1-7.45-1.88,11,11,0,0,1-1.38-2c17.48-7.91,14.52-21.51,11.22-23a29.38,29.38,0,0,1,5.82,4,33.41,33.41,0,0,1,4.12,4.38,6.94,6.94,0,0,1,.51,8Z"></path>
    </clipPath>
    <clipPath id="clip-path-6">
      <path class="cls-2"
            d="M130.6,73.27c1.84-4.49,1.54-10.51-1.38-11.82-2.69-1.28-5.74,2.32-5.85,2.51a14.9,14.9,0,0,0-1.79,2.94l1.53.79a24.1,24.1,0,0,1,7.49,5.58"></path>
    </clipPath>
    <clipPath id="clip-path-7">
      <path class="cls-1"
            d="M126.86,88.36a6.41,6.41,0,0,1-7.45-1.88,11,11,0,0,1-1.38-2c17.48-7.91,14.5-21.51,11.19-23a29.45,29.45,0,0,1,5.83,4,33.41,33.41,0,0,1,4.12,4.38,6.9,6.9,0,0,1,.46,8c-2.79,4.55-10.56,9.77-12.77,10.53Z"></path>
    </clipPath>
  </defs>
  <g id="bcp">
    <path class="cls-1"
          d="M41.85,84.47l1.8-7.78h2.41c3.39,0,6.22.94,6.15,4.12-.09,3.55-3.72,5-7.69,5H42.71a1.07,1.07,0,0,1-.86-1.33Zm18-3.53a6.53,6.53,0,0,0-6-6.88c3.39-.55,7.84-3,7.84-7.6,0-4.86-4.91-7.47-12.29-7.47a57.69,57.69,0,0,0-9.53.77L34.62,83.2S32.8,89.26,38,90.51a17.26,17.26,0,0,0,4.11.57c13.76.77,17.77-5.43,17.77-10.14ZM46.41,64.4a25.69,25.69,0,0,1,3.17-.17c2.76,0,4.73,1,4.69,3.24-.07,2.76-2.85,4.29-6.88,4.29H45.84c-1.14,0-.81-1.31-.81-1.31Z"></path>
    <g class="cls-3">
      <rect class="cls-1" x="29.19" y="53.82" width="37.7" height="42.47"></rect>
    </g>
    <path class="cls-1"
          d="M93.63,91.17c1.12,0,3.22-.44,4-3.66.57-2.56,1.54-6.88,1.54-6.88.74,0,1.79.2,3,.2,11.83,0,15.92-7.6,15.92-12.75,0-5.63-3.92-8.87-12.46-8.91a39.22,39.22,0,0,0-9.42.68L89.23,91.17Zm9.48-26.55a24.1,24.1,0,0,1,3.07-.15c2.76,0,5,.81,5,4.12s-2.56,6.59-7.51,6.63h-.95c-2.23,0-1.6-1.86-1.6-1.86Z"></path>
    <g class="cls-4">
      <rect class="cls-1" x="84.1" y="53.98" width="39.1" height="42.34"></rect>
    </g>
    <path class="cls-1"
          d="M71.9,77.35c0-5.08,3.31-12.69,10.87-12.69,2,0,5.49.51,7.57,2.35,0,0,.77-2.61,1-3.66s-.18-2.76-3.44-3.85a18.45,18.45,0,0,0-6.07-1c-11.82,0-18,9.72-18,19.25C63.84,88,70.72,91.5,77.71,91.5a15.46,15.46,0,0,0,5.8-.86,3.52,3.52,0,0,0,2.28-2.43L87,83a11.07,11.07,0,0,1-7.21,2.52c-4.92,0-7.79-3.17-7.79-8.1"></path>
    <g class="cls-5">
      <rect class="cls-1" x="58.72" y="53.32" width="37.8" height="43.28"></rect>
    </g>
    <path class="cls-2"
          d="M20.47,61.42c-2.69-1.27-5.69,2.33-5.87,2.52a14.82,14.82,0,0,0-1.77,2.94l1.53.79a25.22,25.22,0,0,1,7.52,5.6c1.81-4.49,1.53-10.53-1.41-11.85Z"></path>
    <g class="cls-6">
      <rect class="cls-2" x="7.7" y="56.01" width="20.46" height="22.39"></rect>
    </g>
    <path class="cls-1"
          d="M31,77.83c-2.85,4.58-10.65,9.77-12.84,10.53a6.34,6.34,0,0,1-7.45-1.88,11,11,0,0,1-1.38-2c17.48-7.91,14.52-21.51,11.22-23a29.38,29.38,0,0,1,5.82,4,33.41,33.41,0,0,1,4.12,4.38,6.94,6.94,0,0,1,.51,8Z"></path>
    <g class="cls-7">
      <rect class="cls-1" x="4.16" y="56.3" width="33.05" height="37.74"></rect>
    </g>
    <path class="cls-2"
          d="M130.6,73.27c1.84-4.49,1.54-10.51-1.38-11.82-2.69-1.28-5.74,2.32-5.85,2.51a14.9,14.9,0,0,0-1.79,2.94l1.53.79a24.1,24.1,0,0,1,7.49,5.58"></path>
    <g class="cls-8">
      <rect class="cls-2" x="116.43" y="56.01" width="20.46" height="22.39"></rect>
    </g>
    <path class="cls-1"
          d="M126.86,88.36a6.41,6.41,0,0,1-7.45-1.88,11,11,0,0,1-1.38-2c17.48-7.91,14.5-21.51,11.19-23a29.45,29.45,0,0,1,5.83,4,33.41,33.41,0,0,1,4.12,4.38,6.9,6.9,0,0,1,.46,8c-2.79,4.55-10.56,9.77-12.77,10.53Z"></path>
    <g class="cls-9">
      <rect class="cls-1" x="112.88" y="56.3" width="33.05" height="37.74"></rect>
    </g>
  </g>
</svg>
