<svg xmlns="http://www.w3.org/2000/svg" id="Capa_1" data-name="Capa 1" viewBox="0 0 99.9 17.51">
  <defs>
    <style>.cls-1 {
      fill: #fff;
      fill-rule: evenodd;
    }</style>
  </defs>
  <path class="cls-1"
        d="M24.69,84.48H40.18a2.19,2.19,0,0,0,2.18-2.19V67H26.87a2.19,2.19,0,0,0-2.18,2.19V84.48Zm4.17-2.79,9.19-1.61V70.47l-9.19,1.62v9.6Z"
        transform="translate(-24.69 -66.98)"></path>
  <path class="cls-1"
        d="M89.13,74.07c1.47,0,2.65,1.28,2.65,3.3s-1.18,3.35-2.65,3.35a2.39,2.39,0,0,1-1.95-1,3.46,3.46,0,0,1-.62-2.13,4.15,4.15,0,0,1,.49-2.4,2.5,2.5,0,0,1,2.08-1.17Zm-2.49-4.64,0,4.26a4,4,0,0,1,4.31-1.09c1.92.53,3,2.33,3,4.81a4.8,4.8,0,0,1-4.78,5.18,4.59,4.59,0,0,1-4.82-4.92V69.43Zm-4.21,2.63h.67v2.27h-.67a1.83,1.83,0,0,0-1.81,1.82h0V82.4H78.36V76.14h0a4.06,4.06,0,0,1,4.07-4.07Zm-8.91,6.45H70.23a1.6,1.6,0,0,0,.11.33,2.84,2.84,0,0,0,2.28,1.74h0l.43,0a2.86,2.86,0,0,0,.42,0h0a5,5,0,0,0,2.42-.6,6.19,6.19,0,0,1,0,1.51c-.19,1-1.91,1-2.54,1h0q-.3,0-.6,0a4.07,4.07,0,0,1-.61-.08h0a4.88,4.88,0,0,1-4-5.27h0v0h0a4.82,4.82,0,0,1,3.31-4.64h0l0,0h0a4.35,4.35,0,0,1,4.16.85,6.92,6.92,0,0,1,.53.56,4.43,4.43,0,0,1,.41.65v0h0A3,3,0,0,1,77,75.94a2.26,2.26,0,0,1-.45,1.35,2.86,2.86,0,0,1-1,.79h0a4.51,4.51,0,0,1-2,.43Zm-3.34-1.72h3.44c.76,0,1.64-.39,1.2-1.4v0h0a2.58,2.58,0,0,0-.18-.32,2,2,0,0,0-.28-.33A2.22,2.22,0,0,0,72,74.15h0l0,0h0a2.8,2.8,0,0,0-.43.19,1.7,1.7,0,0,0-.38.26,3.59,3.59,0,0,0-1,2.18Zm-5.91-7.26v2.66H68l-.08.85c-.09.75-.52,1-1.37,1H64.27v4.83h0a3.94,3.94,0,0,0,0,.6c.15.75.58,1,1.29,1A5.62,5.62,0,0,0,68,80.21c.09.83,0,1.93-.5,2.11a6.74,6.74,0,0,1-2,.23,6.26,6.26,0,0,1-1-.1A3,3,0,0,1,62,78.91V69.53Zm-8.92,2.53h.82a4.08,4.08,0,0,1,4.08,4.07h0V82.4H58V76.14h0a1.89,1.89,0,0,0-.54-1.28,1.84,1.84,0,0,0-1.28-.54h-.82a1.84,1.84,0,0,0-1.28.54,1.8,1.8,0,0,0-.53,1.28h0V82.4H51.28V76.14h0a4.06,4.06,0,0,1,4.07-4.07ZM47,69.33h2.29V82.4H47V69.33Zm61.73,2.73h.81a4.08,4.08,0,0,1,4.09,4.07h0V82.4h-2.28V76.14h0a1.73,1.73,0,0,0-.54-1.28,1.81,1.81,0,0,0-1.28-.54h-.81a1.79,1.79,0,0,0-1.28.54,1.77,1.77,0,0,0-.54,1.28h0V82.4H104.6V76.14h0a4,4,0,0,1,4.08-4.07Zm6.74-2.73h2.3V82.4h-2.3V69.33Zm8.68,3.21h-2.27l-4.12,4.66,4.6,5.18h2.27L120,77.2l4.12-4.66Zm-23,5.38v0a11.06,11.06,0,0,1-1.5,0,4.18,4.18,0,0,0-1.85.29,1.32,1.32,0,0,0-.77,1h0v.07h0a1.29,1.29,0,0,0,1.09,1.52h0a3.68,3.68,0,0,0,2.08-.26,1.69,1.69,0,0,0,.83-1.25,6.89,6.89,0,0,0,.1-1.39Zm-2.8-5.76a5.09,5.09,0,0,1,3.4.73,3.15,3.15,0,0,1,.94,1.11,4.88,4.88,0,0,1,.33,1.73v3a3.49,3.49,0,0,1-2,3.51,4.4,4.4,0,0,1-1.67.35c-2.56.06-4.5-1.23-4.3-3.59.12-1.7,1.58-2.43,3.28-2.55.8-.06,2.21.12,2.72,0a3.71,3.71,0,0,0-.25-1.55,1.32,1.32,0,0,0-.78-.79,4.39,4.39,0,0,0-1.85-.2,4.66,4.66,0,0,0-2.27.68v-.88a1.67,1.67,0,0,1,.18-.82c.34-.54,1.54-.71,2.26-.76Z"
        transform="translate(-24.69 -66.98)"></path>
</svg>
