<svg xmlns="http://www.w3.org/2000/svg" id="Capa_2" data-name="Capa 2" viewBox="0 0 133.96 23.92">
  <defs>
    <style>.cls-1 {
      fill: #fff;
      fill-rule: evenodd;
    }</style>
  </defs>
  <path class="cls-1"
        d="M12.81,74.93a7.89,7.89,0,0,1-.94-4.09A8,8,0,0,1,19.59,63H31.93l-4.79,4.83H19.51a7.24,7.24,0,0,0-6.7,7.06Zm4.7-3.47a6.83,6.83,0,0,1,2.25-3,6.55,6.55,0,0,0-5.33,3ZM20,69.06a8.2,8.2,0,0,0-1.86,2.4h3.71A8.17,8.17,0,0,0,20,69.06Zm-5.86,3a6.67,6.67,0,0,0-.77,2.69h3.46a7.73,7.73,0,0,1,.48-2.69Zm3.77,0a10.19,10.19,0,0,0-.53,2.69H22.6a10.61,10.61,0,0,0-.54-2.69Zm7.57-.63a6.37,6.37,0,0,0-5.24-3,7.63,7.63,0,0,1,2.23,3Zm-2.78.63a7.49,7.49,0,0,1,.46,2.69H26.6a6.09,6.09,0,0,0-.77-2.69Zm-8.25,6.47a6.34,6.34,0,0,0,5.33,3,7.14,7.14,0,0,1-2.25-3ZM20,81a8.3,8.3,0,0,0,1.85-2.46H18.12A8.33,8.33,0,0,0,20,81Zm-2.69-3a8.64,8.64,0,0,1-.48-2.69H13.35A6.9,6.9,0,0,0,14.12,78Zm4.77,0a11.07,11.07,0,0,0,.54-2.69H17.36A10.61,10.61,0,0,0,17.89,78Zm.39.54a8,8,0,0,1-2.23,3,6.17,6.17,0,0,0,5.24-3ZM25.83,78a6.29,6.29,0,0,0,.77-2.69H23.14A8.31,8.31,0,0,1,22.68,78Zm1.31-3a7.22,7.22,0,0,1-6.7,7.17H12.81L8,87H20.36a8,8,0,0,0,7.72-7.78,7.74,7.74,0,0,0-.94-4.09V75Z"
        transform="translate(-8.02 -63.04)"></path>
  <path class="cls-1"
        d="M63.22,81.55c-3.2,0-5.5-1.92-5.5-4.94s2.38-5,5.5-5,5.51,2,5.51,5-2.32,4.94-5.51,4.94Zm54.83-9.67v9.47h-3.19l0-.95h-.07a4,4,0,0,1-3.16,1.16c-2.29,0-4.29-2-4.29-5,0-2.75,1.78-5,4.5-5a3.77,3.77,0,0,1,2.9,1.08h.08l0-.86Zm-24.69,0v9.47h-3.2l0-1h-.06a4,4,0,0,1-3.16,1.17c-2.29,0-4.29-2-4.29-4.95,0-2.76,1.77-5,4.5-5A3.74,3.74,0,0,1,90,72.75h.09l0-.86Zm-15.54,0h3.3v9.47h-3.3V71.9Zm17.67,9.45V68h3.28v4.57h0a5.22,5.22,0,0,1,2.86-.9,4.5,4.5,0,0,1,4.44,4.78c0,3.4-2.09,5.11-4.46,5.11a4,4,0,0,1-2.94-1.08h0l0,.87ZM63.22,79.18c1.34,0,2.13-1.17,2.13-2.57S64.6,74,63.22,74,61.1,75.2,61.1,76.61s.79,2.57,2.12,2.57Zm13-.4a4.31,4.31,0,0,1-.91.16,1.29,1.29,0,0,1-1.39-1.47v-3.2H76V71.89H73.92v-3h-3.3v3H69.18v2.38h1.44V78c0,2.06,1,3.54,3.39,3.54a10.38,10.38,0,0,0,1.81-.18l.4-2.59ZM38.77,81a13.76,13.76,0,0,0,3.8.53c2.81,0,5.62-1,5.62-4.08,0-4.24-5.84-3.65-5.84-5.34,0-.86.9-1.05,1.78-1.05a9.69,9.69,0,0,1,3.1.73l.27-2.92a11.43,11.43,0,0,0-3.36-.45c-2.78,0-5.51,1.08-5.51,3.83,0,4.16,5.82,3.29,5.82,5.47,0,.84-.84,1.16-1.91,1.16a8.46,8.46,0,0,1-3.45-1L38.77,81Zm72-4.49c0,1.57.87,2.55,2,2.55a2.23,2.23,0,0,0,2-2.42,2.21,2.21,0,0,0-2-2.47,2.14,2.14,0,0,0-2,2.34Zm-24.7,0c0,1.56.88,2.54,2,2.54a2.22,2.22,0,0,0,2-2.41,2.2,2.2,0,0,0-2-2.47,2.15,2.15,0,0,0-2,2.34ZM56.88,72a7.81,7.81,0,0,0-2.35-.38c-3,0-5.19,1.85-5.19,5a4.8,4.8,0,0,0,5.06,5,7.68,7.68,0,0,0,2.48-.42l-.16-2.76a3.8,3.8,0,0,1-1.67.49,2.2,2.2,0,0,1-2.3-2.26,2.23,2.23,0,0,1,2.34-2.29,3.75,3.75,0,0,1,1.63.46L56.88,72Zm75.21,9.32h3.28V77h0l2.92,4.38H142l-3.52-5,3.43-4.44h-3.65l-2.83,3.91h0V68h-3.28V81.36Zm-11.9,0h3.2V76.47a1.78,1.78,0,0,1,1.73-1.93c1.11,0,1.74.72,1.74,1.93v4.89h3.21v-5.7a3.77,3.77,0,0,0-3.92-4,4.07,4.07,0,0,0-3,1.29h-.06l0-1h-2.88v9.45ZM79.47,67.1A1.85,1.85,0,1,0,81.32,69a1.86,1.86,0,0,0-1.85-1.85Zm23.23,9.52a2,2,0,1,0-4,0c0,1.4.73,2.39,2,2.39s2-1,2-2.39Z"
        transform="translate(-8.02 -63.04)"></path>
</svg>
